<svg id="visual" viewBox="0 0 900 600" width="900" height="600" xmlns="http://www.w3.org/2000/svg" xmlns:xlink="http://www.w3.org/1999/xlink" version="1.1">
  <rect x="0" y="0" width="900" height="600" fill="#FF0066"></rect>
  <g transform="translate(470.763869340043 339.55211935878066)">
    <path d="M94.1 -175C125.6 -144.9 157.2 -126.9 180.4 -99.8C203.5 -72.7 218.3 -36.3 192.2 -15C166.2 6.3 99.3 12.5 78.5 43.7C57.7 74.9 82.8 131 77.4 148C72 165 36 143 10.3 125.1C-15.3 107.2 -30.7 93.4 -74 98.3C-117.3 103.1 -188.5 126.6 -221.7 113.3C-254.9 100 -249.9 50 -240.7 5.3C-231.5 -39.3 -217.9 -78.7 -181.7 -86.6C-145.4 -94.5 -86.5 -71.1 -52.4 -99.8C-18.3 -128.4 -9.2 -209.2 11.1 -228.4C31.3 -247.6 62.7 -205.2 94.1 -175" fill="transparent"></path>
  </g>
</svg>
